<mxfile host="app.diagrams.net" modified="2022-06-03T07:10:58.729Z" agent="5.0 (X11; Linux x86_64) AppleWebKit/537.36 (KHTML, like Gecko) Chrome/102.0.0.0 Safari/537.36" etag="Wik0fugCKstF5W_NSo4c" version="14.9.3" type="github">
  <diagram id="tqUzeNQS_EvAWL8vQ1rX" name="Page-1">
    <mxGraphModel dx="2006" dy="1133" grid="1" gridSize="10" guides="1" tooltips="1" connect="1" arrows="1" fold="1" page="1" pageScale="1" pageWidth="827" pageHeight="1169" math="0" shadow="0">
      <root>
        <mxCell id="0" />
        <mxCell id="1" parent="0" />
        <mxCell id="ibbF1rNgngxlD7PsmQY--2" value="" style="dashed=0;shape=rect;fillColor=#ffffff;strokeColor=none;" parent="1" vertex="1">
          <mxGeometry x="100" y="50" width="358" height="642" as="geometry" />
        </mxCell>
        <mxCell id="ibbF1rNgngxlD7PsmQY--3" value="12:30" style="dashed=0;shape=rect;align=right;fillColor=#00A0B4;strokeColor=none;fontColor=#FFFFFF;spacingRight=4;spacingTop=1;fontStyle=0;fontSize=13;resizeWidth=1;" parent="ibbF1rNgngxlD7PsmQY--2" vertex="1">
          <mxGeometry width="358" height="24" relative="1" as="geometry" />
        </mxCell>
        <mxCell id="ibbF1rNgngxlD7PsmQY--4" value="" style="dashed=0;shape=mxgraph.gmdl.top_bar;strokeColor=none;" parent="ibbF1rNgngxlD7PsmQY--3" vertex="1">
          <mxGeometry x="1" y="0.5" width="46" height="14" relative="1" as="geometry">
            <mxPoint x="-92" y="-7" as="offset" />
          </mxGeometry>
        </mxCell>
        <mxCell id="ibbF1rNgngxlD7PsmQY--5" value="Page title" style="dashed=0;shape=rect;strokeColor=none;fillColor=#00BCD4;resizeWidth=1;fontSize=20;fontColor=#FFFFFF;spacingTop=9;verticalAlign=top;align=left;spacingLeft=72;" parent="ibbF1rNgngxlD7PsmQY--2" vertex="1">
          <mxGeometry width="358" height="104" relative="1" as="geometry">
            <mxPoint y="24" as="offset" />
          </mxGeometry>
        </mxCell>
        <mxCell id="ibbF1rNgngxlD7PsmQY--6" value="" style="dashed=0;shape=mxgraph.gmdl.preferences;strokeColor=none;fillColor=#ffffff;" parent="ibbF1rNgngxlD7PsmQY--5" vertex="1">
          <mxGeometry width="24" height="16" relative="1" as="geometry">
            <mxPoint x="16" y="20" as="offset" />
          </mxGeometry>
        </mxCell>
        <mxCell id="ibbF1rNgngxlD7PsmQY--7" value="ITEM ONE" style="text;fontSize=13;fontColor=#FFFFFF;verticalAlign=middle;align=center;resizeWidth=1;" parent="ibbF1rNgngxlD7PsmQY--5" vertex="1">
          <mxGeometry y="1" width="119" height="48" relative="1" as="geometry">
            <mxPoint y="-48" as="offset" />
          </mxGeometry>
        </mxCell>
        <mxCell id="ibbF1rNgngxlD7PsmQY--8" value="ITEM TWO" style="text;fontSize=13;fontColor=#FFFFFF;verticalAlign=middle;align=center;textOpacity=80;resizeWidth=1;" parent="ibbF1rNgngxlD7PsmQY--5" vertex="1">
          <mxGeometry x="0.33" y="1" width="120" height="48" relative="1" as="geometry">
            <mxPoint y="-48" as="offset" />
          </mxGeometry>
        </mxCell>
        <mxCell id="ibbF1rNgngxlD7PsmQY--9" value="ITEM THREE" style="text;fontSize=13;fontColor=#FFFFFF;verticalAlign=middle;align=center;textOpacity=80;resizeWidth=1;" parent="ibbF1rNgngxlD7PsmQY--5" vertex="1">
          <mxGeometry x="0.67" y="1" width="119" height="48" relative="1" as="geometry">
            <mxPoint y="-48" as="offset" />
          </mxGeometry>
        </mxCell>
        <mxCell id="ibbF1rNgngxlD7PsmQY--10" value="" style="dashed=0;shape=rect;strokeColor=none;fillColor=#F1FB8F;resizeWidth=1;" parent="ibbF1rNgngxlD7PsmQY--5" vertex="1">
          <mxGeometry y="1" width="119" height="4" relative="1" as="geometry">
            <mxPoint y="-3" as="offset" />
          </mxGeometry>
        </mxCell>
        <mxCell id="ibbF1rNgngxlD7PsmQY--11" value="" style="dashed=0;shape=mxgraph.gmdl.search;strokeColor=#ffffff;fillColor=none;strokeWidth=2;" parent="ibbF1rNgngxlD7PsmQY--5" vertex="1">
          <mxGeometry x="1" width="16" height="16" relative="1" as="geometry">
            <mxPoint x="-65" y="20" as="offset" />
          </mxGeometry>
        </mxCell>
        <mxCell id="ibbF1rNgngxlD7PsmQY--12" value="" style="dashed=0;shape=mxgraph.gmdl.settings;strokeColor=none;fillColor=#ffffff;" parent="ibbF1rNgngxlD7PsmQY--5" vertex="1">
          <mxGeometry x="1" width="5" height="16" relative="1" as="geometry">
            <mxPoint x="-24" y="20" as="offset" />
          </mxGeometry>
        </mxCell>
        <mxCell id="ibbF1rNgngxlD7PsmQY--13" value="" style="dashed=0;shape=rect;strokeColor=none;fillColor=#000000;resizeWidth=1;" parent="ibbF1rNgngxlD7PsmQY--2" vertex="1">
          <mxGeometry y="1" width="358" height="48" relative="1" as="geometry">
            <mxPoint y="-48" as="offset" />
          </mxGeometry>
        </mxCell>
        <mxCell id="ibbF1rNgngxlD7PsmQY--14" value="" style="dashed=0;shape=mxgraph.gmdl.back;strokeColor=#ffffff;fillColor=#000000;strokeWidth=2;" parent="ibbF1rNgngxlD7PsmQY--13" vertex="1">
          <mxGeometry x="0.25" y="0.5" width="14" height="14" relative="1" as="geometry">
            <mxPoint x="-7" y="-7" as="offset" />
          </mxGeometry>
        </mxCell>
        <mxCell id="ibbF1rNgngxlD7PsmQY--15" value="" style="shape=ellipse;strokeColor=#ffffff;fillColor=#000000;strokeWidth=2;" parent="ibbF1rNgngxlD7PsmQY--13" vertex="1">
          <mxGeometry x="0.5" y="0.5" width="14" height="14" relative="1" as="geometry">
            <mxPoint x="-7" y="-7" as="offset" />
          </mxGeometry>
        </mxCell>
        <mxCell id="ibbF1rNgngxlD7PsmQY--16" value="" style="shape=rect;strokeColor=#ffffff;fillColor=#000000;strokeWidth=2;" parent="ibbF1rNgngxlD7PsmQY--13" vertex="1">
          <mxGeometry x="0.75" y="0.5" width="14" height="14" relative="1" as="geometry">
            <mxPoint x="-7" y="-7" as="offset" />
          </mxGeometry>
        </mxCell>
      </root>
    </mxGraphModel>
  </diagram>
</mxfile>
